<svg xmlns="http://www.w3.org/2000/svg" xmlns:xlink="http://www.w3.org/1999/xlink" width="2000" zoomAndPan="magnify" viewBox="0 0 1500 1499.999933" height="2000" preserveAspectRatio="xMidYMid meet" version="1.0"><defs><clipPath id="83ec284070"><path d="M 52 1 L 1465 1 L 1465 1485.617188 L 52 1485.617188 Z M 52 1 " clip-rule="nonzero"/></clipPath><clipPath id="d373ef4569"><path d="M 0.640625 1 L 1414 1 L 1414 1485.617188 L 0.640625 1485.617188 Z M 0.640625 1 " clip-rule="nonzero"/></clipPath><clipPath id="29811daa8c"><rect x="0" width="1467" y="0" height="1486"/></clipPath></defs><g transform="matrix(1, 0, 0, 1, 14, 7)"><g clip-path="url(#29811daa8c)"><g clip-path="url(#83ec284070)"><path fill="#7d9b86" d="M 274.125 1265.9375 C 268.238281 1253.390625 262.59375 1240.695312 257.183594 1227.859375 L 263.828125 1243.59375 C 245.953125 1200.949219 230.945312 1157.3125 218.816406 1112.6875 C 206.683594 1068.066406 197.53125 1022.839844 191.355469 977.011719 L 193.710938 994.535156 C 188.902344 958.453125 185.976562 922.214844 184.9375 885.828125 C 184.128906 856.199219 184.277344 826.605469 188.175781 797.183594 L 185.820312 814.691406 C 189.230469 787.6875 196.089844 761.59375 206.398438 736.402344 L 199.75 752.140625 C 205.796875 737.757812 213.496094 724.324219 222.847656 711.835938 L 212.550781 725.109375 C 219.367188 716.257812 227.148438 708.355469 235.894531 701.410156 L 222.566406 711.707031 C 230.140625 705.894531 238.296875 701.070312 247.039062 697.230469 L 231.226562 703.855469 C 240.730469 699.871094 250.589844 697.171875 260.796875 695.761719 L 243.273438 698.113281 C 254.058594 696.871094 264.832031 696.960938 275.59375 698.378906 L 258.066406 696.027344 C 272.027344 698.117188 285.515625 701.882812 298.539062 707.320312 L 282.804688 700.695312 C 300.445312 708.328125 316.847656 718.054688 332.007812 729.871094 L 318.664062 719.574219 C 336 733.273438 351.402344 748.875 364.875 766.390625 L 354.578125 753.042969 C 373.164062 777.753906 388.382812 804.390625 400.226562 832.949219 L 393.582031 817.195312 C 417.828125 874.964844 429.722656 936.3125 438.042969 998.132812 L 435.691406 980.625 C 443.710938 1040.558594 449.488281 1100.949219 461.328125 1160.300781 C 466.460938 1186.789062 473.363281 1212.8125 482.035156 1238.363281 C 492.050781 1267.292969 504.003906 1296.359375 519.683594 1322.730469 C 526.792969 1334.523438 534.558594 1345.863281 542.984375 1356.753906 C 551.410156 1367.644531 560.433594 1378.011719 570.0625 1387.855469 C 579.691406 1397.699219 589.855469 1406.953125 600.558594 1415.617188 C 611.257812 1424.28125 622.425781 1432.296875 634.058594 1439.664062 C 678.050781 1467.75 731.453125 1485.652344 783.953125 1485.050781 C 791.359375 1484.960938 798.746094 1484.503906 806.109375 1483.6875 C 813.472656 1482.867188 820.777344 1481.691406 828.023438 1480.152344 C 835.269531 1478.613281 842.425781 1476.722656 849.484375 1474.480469 C 856.546875 1472.238281 863.480469 1469.652344 870.285156 1466.726562 C 877.089844 1463.800781 883.734375 1460.546875 890.222656 1456.96875 C 896.707031 1453.386719 903 1449.496094 909.101562 1445.292969 C 915.203125 1441.09375 921.085938 1436.601562 926.746094 1431.820312 C 932.40625 1427.042969 937.816406 1421.996094 942.976562 1416.679688 C 952.707031 1406.648438 961.546875 1395.882812 969.496094 1384.386719 C 977.449219 1372.894531 984.402344 1360.824219 990.359375 1348.179688 C 1002.441406 1322.074219 1012.25 1295.285156 1016.597656 1266.769531 C 1021.660156 1233.636719 1023.449219 1201.128906 1019.683594 1167.753906 C 1015.921875 1133.320312 1009.328125 1099.4375 999.902344 1066.105469 C 984.070312 1010.667969 962.988281 956.71875 942.320312 902.957031 C 901.808594 797.542969 858.964844 691.941406 837.808594 580.597656 C 835.222656 567.042969 832.996094 553.429688 831.125 539.75 L 833.480469 557.273438 C 827.285156 511.175781 823.953125 462.871094 829.976562 416.585938 L 827.625 434.109375 C 828.859375 424.578125 831.21875 415.335938 834.703125 406.382812 L 828.058594 422.136719 C 830.453125 416.5625 833.445312 411.328125 837.035156 406.4375 L 826.722656 419.765625 C 830.25 415.199219 834.269531 411.121094 838.789062 407.53125 L 825.441406 417.828125 C 829.859375 414.507812 834.597656 411.734375 839.652344 409.507812 L 823.917969 416.152344 C 830.027344 413.660156 836.34375 411.933594 842.871094 410.972656 L 825.347656 413.328125 C 834.933594 412.136719 844.507812 412.210938 854.070312 413.554688 L 836.566406 411.199219 C 849.6875 413.21875 862.359375 416.835938 874.570312 422.042969 L 858.816406 415.398438 C 873.558594 421.730469 887.28125 429.800781 899.984375 439.605469 L 886.65625 429.308594 C 906.027344 444.632812 922.0625 463.964844 937.125 483.332031 L 926.828125 469.988281 C 970.835938 527.003906 1005.324219 590.78125 1053.417969 644.769531 C 1064.792969 657.515625 1077.085938 669.304688 1090.296875 680.132812 C 1103.511719 690.960938 1117.484375 700.703125 1132.214844 709.351562 C 1161.089844 726.292969 1193.84375 739.792969 1227.085938 744.835938 C 1245.648438 747.660156 1264.171875 750.125 1282.9375 748.300781 C 1294.796875 747.316406 1306.535156 745.554688 1318.15625 743.011719 C 1330.207031 740.148438 1341.332031 735.21875 1352.679688 730.324219 C 1386.132812 715.902344 1414.160156 688.910156 1433.132812 658.058594 C 1469.917969 598.480469 1472.664062 519.097656 1451.65625 453.574219 C 1425.566406 371.839844 1367.308594 308.402344 1315.824219 241.933594 L 1326.121094 255.261719 C 1301.421875 223.261719 1278.777344 189.699219 1262.835938 152.390625 L 1269.460938 168.125 C 1260.679688 147.644531 1254.707031 126.371094 1251.539062 104.3125 L 1253.894531 121.839844 C 1251.898438 105.988281 1251.898438 90.140625 1253.894531 74.289062 L 1251.539062 91.8125 C 1251.859375 89.519531 1252.21875 87.257812 1252.613281 84.980469 C 1253.988281 80.722656 1254.777344 76.355469 1254.976562 71.882812 C 1255.171875 67.410156 1254.773438 62.992188 1253.78125 58.628906 C 1253.589844 54.273438 1252.832031 50.023438 1251.507812 45.871094 C 1250.183594 41.71875 1248.335938 37.816406 1245.96875 34.15625 C 1237.96875 20.492188 1222.304688 7.464844 1206.589844 3.886719 C 1189.648438 0.121094 1170.824219 0.875 1155.761719 10.515625 C 1142.171875 19.285156 1128.335938 33.273438 1125.496094 49.894531 C 1122.539062 65.441406 1120.878906 81.128906 1120.507812 96.953125 C 1120.507812 112.652344 1122.726562 128.277344 1125.082031 143.769531 C 1128.636719 167.222656 1136.507812 189.210938 1145.785156 210.96875 C 1155.171875 233.5 1166.410156 255.066406 1179.5 275.667969 C 1193.75 297.898438 1209.976562 318.738281 1226.183594 339.539062 C 1240.886719 358.363281 1256.039062 376.867188 1270.683594 395.765625 L 1260.40625 382.511719 C 1285.234375 414.664062 1308.519531 448.226562 1324.40625 485.78125 L 1317.78125 470.042969 C 1325.5 488.632812 1330.703125 507.902344 1333.386719 527.851562 L 1331.035156 510.328125 C 1333.371094 528.261719 1333.421875 546.199219 1331.183594 564.144531 L 1333.535156 546.636719 C 1331.628906 561.035156 1327.933594 574.960938 1322.449219 588.410156 L 1329.09375 572.671875 C 1324.464844 583.597656 1318.542969 593.769531 1311.324219 603.1875 L 1321.621094 589.839844 C 1315.265625 597.847656 1308.050781 604.988281 1299.972656 611.261719 L 1313.300781 600.945312 C 1304.917969 607.269531 1295.890625 612.472656 1286.214844 616.550781 L 1301.949219 609.90625 C 1291.914062 613.960938 1281.535156 616.746094 1270.816406 618.265625 L 1288.378906 615.929688 C 1274.414062 617.695312 1260.460938 617.625 1246.515625 615.722656 L 1264.039062 618.074219 C 1245.707031 615.363281 1228.03125 610.34375 1211.011719 603.015625 L 1226.75 609.660156 C 1206.859375 601.039062 1188.320312 590.125 1171.125 576.925781 L 1184.46875 587.222656 C 1161.882812 569.660156 1142.871094 548.351562 1125.363281 525.78125 L 1135.660156 539.109375 C 1110.605469 506.542969 1088.976562 471.585938 1065.632812 437.796875 C 1051.027344 416.660156 1035.648438 395.972656 1019.214844 376.226562 C 1007.429688 362.070312 994.96875 348.234375 980.511719 336.695312 C 963.664062 323.273438 946.628906 311.074219 926.957031 302.339844 C 914.914062 296.683594 902.527344 291.914062 889.800781 288.035156 C 877.25 284.835938 864.523438 282.660156 851.625 281.503906 C 844.164062 280.609375 836.691406 280.492188 829.207031 281.144531 C 817.027344 282.332031 804.039062 283.515625 792.386719 287.773438 C 781.28125 291.800781 769.796875 296.242188 760.160156 303.167969 C 752.96875 308.164062 746.273438 313.75 740.070312 319.933594 C 733.871094 326.113281 728.261719 332.792969 723.246094 339.96875 C 714.660156 351.679688 708.902344 365.851562 704.683594 379.632812 C 700.28125 394.015625 698.738281 409.507812 697.304688 424.378906 C 695.449219 445.886719 694.964844 467.429688 695.855469 489 C 697.789062 537.964844 704 586.378906 714.492188 634.246094 C 732.957031 720.984375 763.90625 804.453125 795.625 887.050781 C 811.550781 928.464844 827.757812 969.875 842.964844 1011.589844 C 858.648438 1054.621094 873.835938 1098.179688 883.324219 1143 C 885.835938 1154.519531 887.84375 1166.121094 889.347656 1177.804688 L 886.996094 1160.28125 C 890.898438 1188.265625 891.195312 1216.289062 887.878906 1244.347656 L 890.234375 1226.84375 C 887.285156 1248.714844 881.582031 1269.839844 873.121094 1290.222656 L 879.765625 1274.484375 C 872.582031 1291.53125 863.375 1307.40625 852.152344 1322.109375 L 862.449219 1308.78125 C 853.230469 1320.605469 842.714844 1331.125 830.898438 1340.351562 L 844.246094 1330.054688 C 833.5 1338.214844 821.921875 1344.945312 809.515625 1350.25 L 825.253906 1343.605469 C 812.535156 1348.855469 799.355469 1352.40625 785.722656 1354.261719 L 803.246094 1351.910156 C 788.554688 1353.714844 773.863281 1353.675781 759.179688 1351.796875 L 776.6875 1354.148438 C 758.054688 1351.539062 740.070312 1346.574219 722.738281 1339.257812 L 738.472656 1345.902344 C 717.652344 1336.960938 698.277344 1325.558594 680.347656 1311.699219 L 693.671875 1321.996094 C 673.96875 1306.695312 656.488281 1289.175781 641.230469 1269.441406 L 651.527344 1282.769531 C 635.964844 1261.945312 623.195312 1239.53125 613.21875 1215.527344 L 619.863281 1231.265625 C 595.394531 1173.34375 584.511719 1111.167969 576.175781 1049.199219 L 578.527344 1066.707031 C 566.214844 974.601562 559.421875 880.351562 525.140625 793.0625 C 515.957031 769.703125 505.980469 746.511719 493.59375 724.65625 C 481.210938 703.296875 467.019531 683.21875 451.015625 664.421875 C 418.128906 625.097656 374.890625 595.695312 327.078125 577.734375 C 313.238281 572.808594 299.019531 569.507812 284.421875 567.835938 C 276.152344 566.511719 267.832031 565.707031 259.460938 565.425781 C 248.167969 565.292969 236.871094 567.042969 225.804688 568.699219 C 214.46875 570.453125 203.457031 573.40625 192.769531 577.5625 C 182.082031 581.71875 171.964844 586.976562 162.421875 593.339844 C 139.269531 608.910156 122.402344 626.679688 106.179688 649.191406 C 93 667.433594 84.117188 688.441406 76.058594 709.316406 C 61.1875 748.109375 55.164062 790.992188 53.246094 832.40625 C 51.003906 880.667969 54.203125 929.628906 59.816406 977.554688 C 65.9375 1032.648438 75.929688 1087.03125 89.78125 1140.703125 C 104.011719 1194.558594 123.042969 1246.589844 144.84375 1297.808594 C 149.785156 1309.480469 154.957031 1321.042969 160.351562 1332.5 C 166.980469 1346.675781 185.199219 1358.855469 199.734375 1362.789062 C 215.488281 1367.117188 236.496094 1365.160156 250.558594 1356.144531 C 264.617188 1347.125 277.023438 1333.554688 280.84375 1316.765625 L 283.199219 1299.257812 C 283.207031 1293.410156 282.449219 1287.667969 280.925781 1282.023438 C 279.398438 1276.382812 277.15625 1271.039062 274.199219 1265.996094 Z M 274.125 1265.9375 " fill-opacity="1" fill-rule="nonzero"/></g><g clip-path="url(#d373ef4569)"><path fill="#efa07c" d="M 222.371094 1265.9375 C 216.484375 1253.390625 210.839844 1240.695312 205.429688 1227.859375 L 212.074219 1243.59375 C 194.199219 1200.949219 179.195312 1157.3125 167.0625 1112.6875 C 154.929688 1068.066406 145.777344 1022.839844 139.601562 977.011719 L 141.957031 994.535156 C 137.148438 958.453125 134.222656 922.214844 133.183594 885.828125 C 132.375 856.199219 132.523438 826.605469 136.421875 797.183594 L 134.066406 814.691406 C 137.476562 787.6875 144.335938 761.59375 154.644531 736.402344 L 148 752.140625 C 154.042969 737.757812 161.742188 724.324219 171.09375 711.835938 L 160.796875 725.109375 C 167.613281 716.257812 175.394531 708.355469 184.140625 701.410156 L 170.8125 711.707031 C 178.386719 705.894531 186.542969 701.070312 195.285156 697.230469 L 179.472656 703.855469 C 188.976562 699.871094 198.835938 697.171875 209.042969 695.761719 L 191.519531 698.113281 C 202.304688 696.871094 213.078125 696.960938 223.839844 698.378906 L 206.316406 696.027344 C 220.273438 698.117188 233.761719 701.882812 246.785156 707.320312 L 231.050781 700.695312 C 248.691406 708.328125 265.09375 718.054688 280.253906 729.871094 L 266.910156 719.574219 C 284.246094 733.273438 299.648438 748.875 313.121094 766.390625 L 302.824219 753.042969 C 321.410156 777.753906 336.628906 804.390625 348.472656 832.949219 L 341.828125 817.195312 C 366.074219 874.964844 377.96875 936.3125 386.289062 998.132812 L 383.9375 980.625 C 391.957031 1040.558594 397.734375 1100.949219 409.574219 1160.300781 C 414.707031 1186.789062 421.609375 1212.8125 430.28125 1238.363281 C 440.296875 1267.292969 452.25 1296.359375 467.929688 1322.730469 C 475.039062 1334.523438 482.804688 1345.863281 491.230469 1356.753906 C 499.65625 1367.644531 508.683594 1378.011719 518.308594 1387.855469 C 527.9375 1397.699219 538.101562 1406.953125 548.804688 1415.617188 C 559.503906 1424.28125 570.671875 1432.296875 582.304688 1439.664062 C 626.296875 1467.75 679.699219 1485.652344 732.199219 1485.050781 C 739.605469 1484.960938 746.992188 1484.503906 754.355469 1483.6875 C 761.71875 1482.867188 769.023438 1481.691406 776.269531 1480.152344 C 783.515625 1478.613281 790.671875 1476.722656 797.730469 1474.480469 C 804.792969 1472.238281 811.726562 1469.652344 818.53125 1466.726562 C 825.335938 1463.800781 831.984375 1460.546875 838.46875 1456.96875 C 844.953125 1453.386719 851.246094 1449.496094 857.347656 1445.292969 C 863.449219 1441.09375 869.332031 1436.601562 874.992188 1431.820312 C 880.652344 1427.042969 886.0625 1421.996094 891.222656 1416.679688 C 900.953125 1406.648438 909.792969 1395.882812 917.742188 1384.386719 C 925.695312 1372.894531 932.648438 1360.824219 938.605469 1348.179688 C 950.6875 1322.074219 960.496094 1295.285156 964.84375 1266.769531 C 969.90625 1233.636719 971.695312 1201.128906 967.933594 1167.753906 C 964.167969 1133.320312 957.574219 1099.4375 948.148438 1066.105469 C 932.316406 1010.667969 911.234375 956.71875 890.566406 902.957031 C 850.054688 797.542969 807.210938 691.941406 786.054688 580.597656 C 783.46875 567.042969 781.242188 553.429688 779.371094 539.75 L 781.726562 557.273438 C 775.53125 511.175781 772.199219 462.871094 778.222656 416.585938 L 775.871094 434.109375 C 777.105469 424.578125 779.464844 415.335938 782.949219 406.382812 L 776.304688 422.136719 C 778.699219 416.5625 781.691406 411.328125 785.28125 406.4375 L 774.96875 419.765625 C 778.496094 415.199219 782.515625 411.121094 787.035156 407.53125 L 773.6875 417.828125 C 778.105469 414.507812 782.84375 411.734375 787.898438 409.507812 L 772.164062 416.152344 C 778.273438 413.660156 784.589844 411.933594 791.117188 410.972656 L 773.59375 413.328125 C 783.179688 412.136719 792.753906 412.210938 802.320312 413.554688 L 784.8125 411.199219 C 797.9375 413.21875 810.605469 416.835938 822.816406 422.042969 L 807.0625 415.398438 C 821.804688 421.730469 835.527344 429.800781 848.230469 439.605469 L 834.902344 429.308594 C 854.273438 444.632812 870.3125 463.964844 885.371094 483.332031 L 875.074219 469.988281 C 919.082031 527.003906 953.570312 590.78125 1001.664062 644.769531 C 1013.039062 657.515625 1025.332031 669.304688 1038.542969 680.132812 C 1051.757812 690.960938 1065.730469 700.703125 1080.460938 709.351562 C 1109.335938 726.292969 1142.089844 739.792969 1175.332031 744.835938 C 1193.894531 747.660156 1212.417969 750.125 1231.183594 748.300781 C 1243.042969 747.316406 1254.78125 745.554688 1266.402344 743.011719 C 1278.453125 740.148438 1289.578125 735.21875 1300.925781 730.324219 C 1334.378906 715.902344 1362.40625 688.910156 1381.382812 658.058594 C 1418.164062 598.480469 1420.910156 519.097656 1399.902344 453.574219 C 1373.8125 371.839844 1315.554688 308.402344 1264.070312 241.933594 L 1274.367188 255.261719 C 1249.667969 223.261719 1227.023438 189.699219 1211.082031 152.390625 L 1217.707031 168.125 C 1208.925781 147.644531 1202.953125 126.371094 1199.785156 104.3125 L 1202.140625 121.839844 C 1200.144531 105.988281 1200.144531 90.140625 1202.140625 74.289062 L 1199.785156 91.8125 C 1200.105469 89.519531 1200.464844 87.257812 1200.859375 84.980469 C 1202.234375 80.722656 1203.023438 76.355469 1203.222656 71.882812 C 1203.421875 67.410156 1203.019531 62.992188 1202.027344 58.628906 C 1201.835938 54.273438 1201.078125 50.023438 1199.753906 45.871094 C 1198.429688 41.71875 1196.582031 37.816406 1194.214844 34.15625 C 1186.214844 20.492188 1170.550781 7.464844 1154.835938 3.886719 C 1137.894531 0.121094 1119.070312 0.875 1104.011719 10.515625 C 1090.417969 19.285156 1076.582031 33.273438 1073.742188 49.894531 C 1070.789062 65.441406 1069.125 81.128906 1068.753906 96.953125 C 1068.753906 112.652344 1070.972656 128.277344 1073.328125 143.769531 C 1076.882812 167.222656 1084.753906 189.210938 1094.035156 210.96875 C 1103.417969 233.5 1114.65625 255.066406 1127.746094 275.667969 C 1141.996094 297.898438 1158.222656 318.738281 1174.429688 339.539062 C 1189.132812 358.363281 1204.285156 376.867188 1218.929688 395.765625 L 1208.652344 382.511719 C 1233.480469 414.664062 1256.765625 448.226562 1272.652344 485.78125 L 1266.027344 470.042969 C 1273.746094 488.632812 1278.949219 507.902344 1281.632812 527.851562 L 1279.28125 510.328125 C 1281.617188 528.261719 1281.667969 546.199219 1279.429688 564.144531 L 1281.785156 546.636719 C 1279.875 561.035156 1276.179688 574.960938 1270.695312 588.410156 L 1277.339844 572.671875 C 1272.714844 583.597656 1266.789062 593.769531 1259.570312 603.1875 L 1269.867188 589.839844 C 1263.511719 597.847656 1256.296875 604.988281 1248.21875 611.261719 L 1261.546875 600.945312 C 1253.164062 607.269531 1244.136719 612.472656 1234.460938 616.550781 L 1250.195312 609.90625 C 1240.160156 613.960938 1229.78125 616.746094 1219.0625 618.265625 L 1236.625 615.929688 C 1222.660156 617.695312 1208.707031 617.625 1194.761719 615.722656 L 1212.285156 618.074219 C 1193.953125 615.363281 1176.277344 610.34375 1159.257812 603.015625 L 1174.996094 609.660156 C 1155.105469 601.039062 1136.566406 590.125 1119.371094 576.925781 L 1132.714844 587.222656 C 1110.128906 569.660156 1091.117188 548.351562 1073.609375 525.78125 L 1083.90625 539.109375 C 1058.851562 506.542969 1037.222656 471.585938 1013.878906 437.796875 C 999.273438 416.660156 983.894531 395.972656 967.460938 376.226562 C 955.675781 362.070312 943.214844 348.234375 928.757812 336.695312 C 911.910156 323.273438 894.875 311.074219 875.203125 302.339844 C 863.160156 296.683594 850.773438 291.914062 838.046875 288.035156 C 825.496094 284.835938 812.769531 282.660156 799.871094 281.503906 C 792.410156 280.609375 784.9375 280.492188 777.453125 281.144531 C 765.273438 282.332031 752.285156 283.515625 740.632812 287.773438 C 729.527344 291.800781 718.042969 296.242188 708.40625 303.167969 C 701.214844 308.164062 694.519531 313.75 688.316406 319.933594 C 682.117188 326.113281 676.507812 332.792969 671.492188 339.96875 C 662.910156 351.679688 657.148438 365.851562 652.933594 379.632812 C 648.527344 394.015625 646.984375 409.507812 645.550781 424.378906 C 643.695312 445.886719 643.210938 467.429688 644.101562 489 C 646.035156 537.964844 652.246094 586.378906 662.738281 634.246094 C 681.207031 720.984375 712.152344 804.453125 743.871094 887.050781 C 759.796875 928.464844 776.003906 969.875 791.210938 1011.589844 C 806.894531 1054.621094 822.082031 1098.179688 831.570312 1143 C 834.082031 1154.519531 836.089844 1166.121094 837.59375 1177.804688 L 835.242188 1160.28125 C 839.148438 1188.265625 839.441406 1216.289062 836.125 1244.347656 L 838.480469 1226.84375 C 835.53125 1248.714844 829.828125 1269.839844 821.367188 1290.222656 L 828.011719 1274.484375 C 820.828125 1291.53125 811.621094 1307.40625 800.398438 1322.109375 L 810.695312 1308.78125 C 801.476562 1320.605469 790.960938 1331.125 779.144531 1340.351562 L 792.492188 1330.054688 C 781.746094 1338.214844 770.167969 1344.945312 757.761719 1350.25 L 773.5 1343.605469 C 760.78125 1348.855469 747.601562 1352.40625 733.96875 1354.261719 L 751.492188 1351.910156 C 736.800781 1353.714844 722.109375 1353.675781 707.425781 1351.796875 L 724.933594 1354.148438 C 706.300781 1351.539062 688.316406 1346.574219 670.984375 1339.257812 L 686.71875 1345.902344 C 665.898438 1336.960938 646.523438 1325.558594 628.59375 1311.699219 L 641.917969 1321.996094 C 622.214844 1306.695312 604.734375 1289.175781 589.476562 1269.441406 L 599.773438 1282.769531 C 584.210938 1261.945312 571.441406 1239.53125 561.464844 1215.527344 L 568.109375 1231.265625 C 543.640625 1173.34375 532.757812 1111.167969 524.421875 1049.199219 L 526.773438 1066.707031 C 514.460938 974.601562 507.667969 880.351562 473.390625 793.0625 C 464.203125 769.703125 454.226562 746.511719 441.839844 724.65625 C 429.457031 703.296875 415.265625 683.21875 399.261719 664.421875 C 366.375 625.097656 323.136719 595.695312 275.324219 577.734375 C 261.484375 572.808594 247.265625 569.507812 232.667969 567.835938 C 224.398438 566.511719 216.078125 565.707031 207.707031 565.425781 C 196.414062 565.292969 185.117188 567.042969 174.050781 568.699219 C 162.714844 570.453125 151.703125 573.40625 141.015625 577.5625 C 130.328125 581.71875 120.210938 586.976562 110.671875 593.339844 C 87.515625 608.910156 70.652344 626.679688 54.425781 649.191406 C 41.246094 667.433594 32.363281 688.441406 24.304688 709.316406 C 9.433594 748.109375 3.410156 790.992188 1.492188 832.40625 C -0.75 880.667969 2.453125 929.628906 8.0625 977.554688 C 14.183594 1032.648438 24.175781 1087.03125 38.027344 1140.703125 C 52.257812 1194.558594 71.289062 1246.589844 93.089844 1297.808594 C 98.03125 1309.480469 103.203125 1321.042969 108.597656 1332.5 C 115.226562 1346.675781 133.445312 1358.855469 147.980469 1362.789062 C 163.734375 1367.117188 184.742188 1365.160156 198.804688 1356.144531 C 212.867188 1347.125 225.269531 1333.554688 229.089844 1316.765625 L 231.445312 1299.257812 C 231.453125 1293.410156 230.695312 1287.667969 229.171875 1282.023438 C 227.644531 1276.382812 225.402344 1271.039062 222.445312 1265.996094 Z M 222.371094 1265.9375 " fill-opacity="1" fill-rule="nonzero"/></g></g></g></svg>