<?xml version="1.0" encoding="UTF-8" standalone="no"?>
<svg
   width="2000"
   zoomAndPan="magnify"
   viewBox="0 0 1500 829.06481"
   height="1105.4198"
   preserveAspectRatio="xMidYMid"
   version="1.0"
   id="svg40"
   sodipodi:docname="Logo.svg"
   inkscape:version="1.3.2 (091e20e, 2023-11-25, custom)"
   xmlns:inkscape="http://www.inkscape.org/namespaces/inkscape"
   xmlns:sodipodi="http://sodipodi.sourceforge.net/DTD/sodipodi-0.dtd"
   xmlns="http://www.w3.org/2000/svg"
   xmlns:svg="http://www.w3.org/2000/svg">
  <sodipodi:namedview
     id="namedview40"
     pagecolor="#ffffff"
     bordercolor="#000000"
     borderopacity="0.25"
     inkscape:showpageshadow="2"
     inkscape:pageopacity="0.0"
     inkscape:pagecheckerboard="0"
     inkscape:deskcolor="#d1d1d1"
     inkscape:zoom="0.101625"
     inkscape:cx="777.36777"
     inkscape:cy="-428.04428"
     inkscape:window-width="1920"
     inkscape:window-height="1009"
     inkscape:window-x="-8"
     inkscape:window-y="-8"
     inkscape:window-maximized="1"
     inkscape:current-layer="svg40" />
  <defs
     id="defs6">
    <g
       id="g1" />
    <clipPath
       id="7eaed7f168">
      <path
         d="M 0,214.69922 H 1500 V 617.30078 H 0 Z m 0,0"
         clip-rule="nonzero"
         id="path1" />
    </clipPath>
    <clipPath
       id="b78dce877a">
      <path
         d="m 75,214.69922 h 1350 c 41.4219,0 75,33.57812 75,75 v 252.60156 c 0,41.42188 -33.5781,75 -75,75 H 75 c -41.421875,0 -75,-33.57812 -75,-75 V 289.69922 c 0,-41.42188 33.578125,-75 75,-75 z m 0,0"
         clip-rule="nonzero"
         id="path2" />
    </clipPath>
    <clipPath
       id="12062ce94c">
      <path
         d="M 0,0.699219 H 1500 V 403.30078 H 0 Z m 0,0"
         clip-rule="nonzero"
         id="path3" />
    </clipPath>
    <clipPath
       id="cc6d30cabf">
      <path
         d="m 75,0.699219 h 1350 c 41.4219,0 75,33.578125 75,75 V 328.30078 c 0,41.42188 -33.5781,75 -75,75 H 75 c -41.421875,0 -75,-33.57812 -75,-75 V 75.699219 c 0,-41.421875 33.578125,-75 75,-75 z m 0,0"
         clip-rule="nonzero"
         id="path4" />
    </clipPath>
    <clipPath
       id="2d6463ae43">
      <rect
         x="0"
         width="1500"
         y="0"
         height="404"
         id="rect4" />
    </clipPath>
    <clipPath
       id="7a0bb22a96">
      <rect
         x="0"
         width="800"
         y="0"
         height="574"
         id="rect5" />
    </clipPath>
    <clipPath
       id="b5afdc0160">
      <rect
         x="0"
         width="1500"
         y="0"
         height="832"
         id="rect6" />
    </clipPath>
  </defs>
  <g
     transform="translate(0,-1.7089678)"
     id="g40">
    <g
       clip-path="url(#b5afdc0160)"
       id="g39">
      <g
         clip-path="url(#7eaed7f168)"
         id="g11">
        <g
           clip-path="url(#b78dce877a)"
           id="g10">
          <g
             transform="translate(0,214)"
             id="g9">
            <g
               clip-path="url(#2d6463ae43)"
               id="g8">
              <g
                 clip-path="url(#12062ce94c)"
                 id="g7">
                <g
                   clip-path="url(#cc6d30cabf)"
                   id="g6">
                  <path
                     fill="#ece5d8"
                     d="M 0,0.699219 H 1500.3242 V 403.30078 H 0 Z m 0,0"
                     fill-opacity="1"
                     fill-rule="nonzero"
                     id="path6" />
                </g>
              </g>
            </g>
          </g>
        </g>
      </g>
      <path
         fill="#7d9b86"
         d="m 506.30469,708.29687 c -3.28907,-7.01562 -6.44532,-14.10937 -9.46875,-21.28515 l 3.71484,8.79687 c -9.99219,-23.83984 -18.37891,-48.22656 -25.16016,-73.17187 -6.78125,-24.94141 -11.89453,-50.21875 -15.34765,-75.83594 l 1.3164,9.79688 c -2.6875,-20.16797 -4.32421,-40.42188 -4.90625,-60.76172 -0.44921,-16.5586 -0.36718,-33.10157 1.8125,-49.54297 l -1.3164,9.78125 c 1.90625,-15.08985 5.73828,-29.67578 11.5,-43.75781 l -3.71485,8.79687 c 3.37891,-8.03906 7.6836,-15.54687 12.91016,-22.52734 l -5.75391,7.41797 c 3.8086,-4.94532 8.15625,-9.36329 13.04688,-13.2461 l -7.44922,5.75391 c 4.23047,-3.2461 8.79297,-5.94141 13.67578,-8.08985 l -8.83594,3.70313 c 5.3125,-2.22656 10.82032,-3.73438 16.52735,-4.52344 l -9.79297,1.31641 c 6.02734,-0.69531 12.04687,-0.64844 18.0625,0.14453 l -9.79297,-1.3125 c 7.80078,1.16797 15.33984,3.27344 22.62109,6.3125 l -8.79687,-3.70313 c 9.85937,4.26563 19.02734,9.70313 27.50391,16.3086 l -7.46094,-5.75781 c 9.6914,7.65625 18.30078,16.3789 25.82812,26.16796 l -5.7539,-7.46093 c 10.39062,13.8125 18.89453,28.69922 25.51562,44.66406 l -3.71484,-8.80469 c 13.55078,32.28906 20.20312,66.57813 24.85156,101.13281 l -1.31641,-9.78515 c 4.48438,33.5 7.71485,67.25 14.33204,100.42578 2.86718,14.80859 6.72656,29.35156 11.57421,43.63281 5.59766,16.17188 12.27735,32.41797 21.04297,47.15625 3.97266,6.59375 8.3125,12.92969 13.02344,19.01953 4.70703,6.08594 9.75391,11.87891 15.13672,17.38282 5.37891,5.5 11.0625,10.67187 17.04297,15.51562 5.98047,4.84375 12.22265,9.32422 18.72265,13.44141 24.58985,15.69922 54.44141,25.70312 83.78516,25.36718 4.14063,-0.0508 8.26563,-0.30468 12.38281,-0.76171 4.11719,-0.45704 8.19922,-1.11719 12.25,-1.97657 4.05078,-0.85937 8.04688,-1.91406 11.9961,-3.16797 3.94531,-1.2539 7.82031,-2.69921 11.625,-4.33593 3.80468,-1.63282 7.51953,-3.45313 11.14453,-5.45313 3.625,-2.0039 7.14062,-4.17578 10.55078,-6.52344 3.41016,-2.35156 6.69922,-4.85937 9.86328,-7.53125 3.16016,-2.67187 6.1875,-5.49218 9.07031,-8.46484 10.95313,-11.29297 19.78125,-24.05469 26.48438,-38.28516 6.7539,-14.59375 12.23437,-29.5664 14.66797,-45.50781 2.82812,-18.51562 3.82812,-36.6875 1.72265,-55.33984 -2.10156,-19.2461 -5.78906,-38.1875 -11.05859,-56.81641 -8.84766,-30.98828 -20.62891,-61.14062 -32.18359,-91.1914 -22.64063,-58.91797 -46.58985,-117.94532 -58.41407,-180.17969 -1.44531,-7.57422 -2.6914,-15.1836 -3.73437,-22.83203 l 1.3125,9.79687 c -3.46094,-25.76562 -5.32422,-52.76562 -1.95703,-78.63672 l -1.3125,9.79297 c 0.6875,-5.32422 2.00781,-10.49219 3.95312,-15.49609 l -3.71094,8.80469 c 1.33594,-3.11329 3.00782,-6.03907 5.01563,-8.77344 l -5.76563,7.44922 c 1.97266,-2.55078 4.22266,-4.83203 6.7461,-6.83985 l -7.46094,5.75782 c 2.47266,-1.85547 5.11719,-3.40625 7.94531,-4.65235 l -8.79687,3.71485 c 3.41406,-1.39063 6.94531,-2.35547 10.59375,-2.89454 l -9.79297,1.31641 c 5.35547,-0.66797 10.70703,-0.625 16.05469,0.125 l -9.78516,-1.31641 c 7.33594,1.13282 14.41797,3.15235 21.24219,6.0625 l -8.80469,-3.71484 c 8.23828,3.53906 15.91016,8.05078 23.00781,13.53125 l -7.44922,-5.75391 c 10.82813,8.5625 19.79297,19.36719 28.21094,30.19532 l -5.75781,-7.46094 c 24.60156,31.87109 43.875,67.51562 70.75781,97.69141 12.79297,14.33593 27.47266,26.37109 44.04297,36.10156 16.14062,9.46875 34.44922,17.01172 53.02732,19.83203 10.375,1.57812 20.7266,2.95703 31.2188,1.9375 6.625,-0.55078 13.1875,-1.53516 19.6836,-2.95703 6.7343,-1.60156 12.9531,-4.35547 19.2968,-7.09375 18.6993,-8.0586 34.3633,-23.14453 44.9688,-40.39063 20.5586,-33.30078 22.0977,-77.66797 10.3555,-114.29297 -14.586,-45.6875 -47.1485,-81.14453 -75.9258,-118.29296 l 5.7578,7.44921 c -13.8047,-17.88671 -26.4609,-36.64843 -35.375,-57.499995 l 3.7031,8.792969 c -4.9062,-11.445313 -8.2461,-23.335938 -10.0156,-35.667969 l 1.3164,9.796875 c -1.1133,-8.859375 -1.1133,-17.71875 0,-26.578125 l -1.3164,9.796875 c 0.1797,-1.285156 0.3789,-2.546875 0.6016,-3.820312 0.7695,-2.378907 1.207,-4.820313 1.3203,-7.320313 0.1093,-2.5 -0.1133,-4.96875 -0.668,-7.410156 -0.1055,-2.433594 -0.5312,-4.808594 -1.2695,-7.128907 -0.7422,-2.320312 -1.7735,-4.503906 -3.0977,-6.546874 -4.4726,-7.640626 -13.2265,-14.921876 -22.0117,-16.917969 -9.4688,-2.105469 -19.9922,-1.683594 -28.40626,3.703125 -7.59765,4.902344 -15.33203,12.71875 -16.92187,22.011718 -1.64844,8.691407 -2.57813,17.457032 -2.78516,26.300782 0,8.777344 1.24219,17.507812 2.55469,26.167968 1.98828,13.109376 6.38672,25.398438 11.57422,37.562498 5.24609,12.59375 11.52738,24.64844 18.84378,36.16016 7.9648,12.42578 17.0351,24.07422 26.0937,35.69922 8.2188,10.52343 16.6875,20.86718 24.8711,31.42968 l -5.7422,-7.40625 c 13.875,17.96875 26.8907,36.73047 35.7735,57.71875 l -3.7071,-8.79687 c 4.3164,10.39062 7.2227,21.16406 8.7227,32.3125 l -1.3125,-9.79688 c 1.3047,10.02344 1.332,20.05079 0.082,30.08204 l 1.3164,-9.78516 c -1.0664,8.04687 -3.1328,15.83203 -6.1992,23.34766 l 3.7149,-8.79688 c -2.586,6.10938 -5.8946,11.79297 -9.9297,17.05469 l 5.7539,-7.45703 c -3.5547,4.47656 -7.586,8.46875 -12.1016,11.97265 l 7.4492,-5.76562 c -4.6836,3.53515 -9.7304,6.4414 -15.1406,8.72265 l 8.7969,-3.71484 c -5.6094,2.26563 -11.4102,3.82422 -17.4024,4.67188 l 9.8164,-1.30469 c -7.8046,0.98437 -15.6054,0.94922 -23.3984,-0.11719 l 9.7969,1.31641 c -10.2461,-1.51563 -20.1289,-4.32032 -29.6406,-8.41797 l 8.7968,3.71484 c -11.1172,-4.82031 -21.4804,-10.91797 -31.0937,-18.29687 l 7.4609,5.7539 c -12.625,-9.8164 -23.24999,-21.72656 -33.03514,-34.33984 l 5.7539,7.44922 c -14.0039,-18.20313 -26.09375,-37.74219 -39.14062,-56.62891 -8.16407,-11.8125 -16.76172,-23.3789 -25.94532,-34.41406 -6.58593,-7.91406 -13.55078,-15.64453 -21.63281,-22.09375 -9.41406,-7.50391 -18.9375,-14.32031 -29.93359,-19.20313 -6.73047,-3.16015 -13.65625,-5.82812 -20.76953,-7.99609 -7.01563,-1.78906 -14.125,-3.00391 -21.33594,-3.65234 -4.17188,-0.4961 -8.34766,-0.56641 -12.53125,-0.19922 -6.80859,0.66406 -14.06641,1.32812 -20.58203,3.70312 -6.20703,2.25391 -12.625,4.73438 -18.01172,8.60938 -8.10156,5.625 -14.98047,12.48047 -20.63281,20.5664 -4.79688,6.54688 -8.01563,14.46875 -10.375,22.16797 -2.46094,8.03907 -3.32422,16.69922 -4.1211,25.01172 -1.03906,12.02344 -1.3125,24.0625 -0.8125,36.1211 1.08203,27.36718 4.55078,54.42968 10.41797,81.18359 10.32031,48.48047 27.61719,95.13281 45.34766,141.30078 8.89844,23.14844 17.95703,46.29688 26.46094,69.60938 8.76562,24.05468 17.2539,48.40234 22.55859,73.45312 1.40234,6.4375 2.52344,12.92188 3.36719,19.45313 l -1.31641,-9.79688 c 2.18359,15.64453 2.34766,31.30469 0.49609,46.98828 l 1.3125,-9.78125 c -1.64453,12.22266 -4.83593,24.03125 -9.5625,35.42578 l 3.71485,-8.79687 c -4.01953,9.52734 -9.16406,18.39844 -15.4375,26.61719 l 5.75781,-7.44922 c -5.15234,6.60937 -11.03125,12.48828 -17.63672,17.64453 l 7.46094,-5.75391 c -6.00781,4.5625 -12.47656,8.32422 -19.41406,11.28906 l 8.79687,-3.71484 c -7.10937,2.93359 -14.47265,4.91797 -22.09375,5.95703 l 9.79688,-1.3164 c -8.21485,1.00781 -16.42578,0.98828 -24.63282,-0.0625 l 9.78516,1.3164 c -10.41406,-1.46094 -20.46484,-4.23437 -30.15625,-8.32422 l 8.79688,3.71485 c -11.63672,-5 -22.46875,-11.3711 -32.48829,-19.11719 l 7.44922,5.75391 c -11.01562,-8.55079 -20.78515,-18.34375 -29.3125,-29.375 l 5.75391,7.44921 c -8.69922,-11.64062 -15.83594,-24.16796 -21.41016,-37.58203 l 3.71485,8.79297 C 685.875,656.54297 679.79297,621.78906 675.13281,587.15234 l 1.31641,9.78516 c -6.88281,-51.48047 -10.67969,-104.16406 -29.83985,-152.94922 -5.13671,-13.05859 -10.71093,-26.01953 -17.63281,-38.23437 -6.92187,-11.94141 -14.85547,-23.16407 -23.80078,-33.67188 -18.38281,-21.97656 -42.55078,-38.41406 -69.27344,-48.44922 -7.73437,-2.7539 -15.68359,-4.60156 -23.83984,-5.53515 -4.625,-0.73829 -9.27344,-1.1875 -13.95313,-1.34766 -6.3125,-0.0742 -12.625,0.90625 -18.8125,1.83203 -6.33593,0.98047 -12.48828,2.62891 -18.46484,4.95313 -5.97266,2.32421 -11.62891,5.26171 -16.96094,8.82031 -12.9414,8.69922 -22.36718,18.63281 -31.4375,31.21484 -7.36718,10.19531 -12.33203,21.9375 -16.83593,33.60547 -8.3125,21.6875 -11.67969,45.65234 -12.75,68.80078 -1.25391,26.97656 0.53515,54.34375 3.67187,81.13281 3.42188,30.79297 9.00391,61.1875 16.75,91.1875 7.95313,30.10157 18.58984,59.1836 30.77344,87.8125 2.76562,6.52344 5.65625,12.98829 8.67187,19.39063 3.70313,7.92187 13.88672,14.73047 22.00782,16.92969 8.80859,2.41797 20.55078,1.32422 28.41015,-3.71485 7.85938,-5.03906 14.79297,-12.625 16.92969,-22.01172 l 1.3125,-9.78515 c 0.008,-3.26563 -0.41797,-6.47656 -1.26953,-9.62891 -0.85156,-3.15625 -2.10547,-6.14062 -3.75781,-8.96094 z m 0,0"
         fill-opacity="1"
         fill-rule="nonzero"
         id="path11" />
      <path
         fill="#efa07c"
         d="m 477.37891,708.29687 c -3.28907,-7.01562 -6.44532,-14.10937 -9.46875,-21.28515 l 3.71484,8.79687 c -9.99219,-23.83984 -18.37891,-48.22656 -25.16016,-73.17187 -6.78125,-24.94141 -11.89843,-50.21875 -15.34765,-75.83594 l 1.3125,9.79688 c -2.6875,-20.16797 -4.32032,-40.42188 -4.90235,-60.76172 -0.45312,-16.5586 -0.36718,-33.10157 1.8086,-49.54297 l -1.3125,9.78125 c 1.90625,-15.08985 5.73828,-29.67578 11.5,-43.75781 l -3.71485,8.79687 c 3.37891,-8.03906 7.6836,-15.54687 12.91016,-22.52734 l -5.75781,7.41797 c 3.8125,-4.94532 8.16015,-9.36329 13.04687,-13.2461 l -7.44922,5.75391 c 4.23438,-3.2461 8.79297,-5.94141 13.67969,-8.08985 l -8.83984,3.70313 c 5.3125,-2.22656 10.82422,-3.73438 16.53125,-4.52344 l -9.79688,1.31641 c 6.02735,-0.69531 12.05078,-0.64844 18.06641,0.14453 l -9.79688,-1.3125 c 7.80078,1.16797 15.34375,3.27344 22.6211,6.3125 l -8.79297,-3.70313 c 9.85937,4.26563 19.02734,9.70313 27.5,16.3086 l -7.45703,-5.75781 c 9.6875,7.65625 18.30078,16.3789 25.82812,26.16796 l -5.7539,-7.46093 c 10.38671,13.8125 18.89453,28.69922 25.51562,44.66406 l -3.71484,-8.80469 C 557.69922,489.76562 564.34766,524.05469 569,558.60937 l -1.31641,-9.78515 c 4.48438,33.5 7.71094,67.25 14.33203,100.42578 2.86719,14.80859 6.72266,29.35156 11.57422,43.63281 5.59375,16.17188 12.27735,32.41797 21.04297,47.15625 3.97266,6.59375 8.3125,12.92969 13.02344,19.01953 4.70703,6.08594 9.75391,11.87891 15.13281,17.38282 5.38281,5.5 11.0625,10.67187 17.04688,15.51562 5.98047,4.84375 12.22265,9.32422 18.72265,13.44141 24.58985,15.69922 54.4375,25.70312 83.78125,25.36718 4.14063,-0.0508 8.26953,-0.30468 12.38672,-0.76171 4.11328,-0.45704 8.19922,-1.11719 12.2461,-1.97657 4.05078,-0.85937 8.05078,-1.91406 11.99609,-3.16797 3.94922,-1.2539 7.82422,-2.69921 11.62891,-4.33593 3.80078,-1.63282 7.51562,-3.45313 11.14062,-5.45313 3.625,-2.0039 7.14453,-4.17578 10.55469,-6.52344 3.41015,-2.35156 6.69922,-4.85937 9.85937,-7.53125 3.16407,-2.67187 6.1875,-5.49218 9.07422,-8.46484 10.95313,-11.29297 19.77735,-24.05469 26.48438,-38.28516 6.7539,-14.59375 12.23437,-29.5664 14.66406,-45.50781 2.83203,-18.51562 3.83203,-36.6875 1.72656,-55.33984 -2.10547,-19.2461 -5.78906,-38.1875 -11.05859,-56.81641 -8.84766,-30.98828 -20.63281,-61.14062 -32.1836,-91.1914 -22.64453,-58.91797 -46.58984,-117.94532 -58.41406,-180.17969 -1.44531,-7.57422 -2.6914,-15.1836 -3.73828,-22.83203 l 1.31641,9.79687 c -3.46094,-25.76562 -5.32422,-52.76562 -1.95703,-78.63672 l -1.31641,9.79297 c 0.69141,-5.32422 2.00781,-10.49219 3.95703,-15.49609 l -3.71484,8.80469 c 1.33984,-3.11329 3.01172,-6.03907 5.01953,-8.77344 l -5.76563,7.44922 c 1.97266,-2.55078 4.21875,-4.83203 6.7461,-6.83985 l -7.46094,5.75782 c 2.46875,-1.85547 5.11719,-3.40625 7.94141,-4.65235 l -8.79297,3.71485 c 3.41406,-1.39063 6.94531,-2.35547 10.59375,-2.89454 l -9.79688,1.31641 c 5.35938,-0.66797 10.71094,-0.625 16.0586,0.125 L 791.75,230.54687 c 7.33594,1.13282 14.41406,3.15235 21.24219,6.0625 l -8.8086,-3.71484 c 8.24219,3.53906 15.91407,8.05078 23.01172,13.53125 l -7.44922,-5.75391 c 10.82813,8.5625 19.79297,19.36719 28.20703,30.19532 l -5.7539,-7.46094 c 24.59765,31.87109 43.875,67.51562 70.75781,97.69141 12.79297,14.33593 27.47266,26.37109 44.04297,36.10156 16.14062,9.46875 34.44531,17.01172 53.0273,19.83203 10.375,1.57812 20.7266,2.95703 31.2188,1.9375 6.625,-0.55078 13.1875,-1.53516 19.6836,-2.95703 6.7344,-1.60156 12.9531,-4.35547 19.2969,-7.09375 18.6953,-8.0586 34.3632,-23.14453 44.9687,-40.39063 20.5586,-33.30078 22.0938,-77.66797 10.3516,-114.29297 -14.5821,-45.6875 -47.1446,-81.14453 -75.9219,-118.29296 l 5.7539,7.44921 c -13.8008,-17.88671 -26.4609,-36.64843 -35.3711,-57.499995 l 3.7031,8.792969 c -4.9062,-11.445313 -8.2461,-23.335938 -10.0156,-35.667969 l 1.3164,9.796875 c -1.1172,-8.859375 -1.1172,-17.71875 0,-26.578125 l -1.3164,9.796875 c 0.1797,-1.285156 0.3789,-2.546875 0.5977,-3.820312 0.7695,-2.378907 1.2109,-4.820313 1.3203,-7.320313 0.1133,-2.5 -0.1094,-4.96875 -0.668,-7.410156 -0.1055,-2.433594 -0.5273,-4.808594 -1.2695,-7.128907 -0.7383,-2.320312 -1.7735,-4.503906 -3.0938,-6.546874 -4.4726,-7.640626 -13.2265,-14.921876 -22.01169,-16.917969 -9.46875,-2.105469 -19.99219,-1.683594 -28.41015,3.703125 -7.59375,4.902344 -15.32813,12.71875 -16.91797,22.011718 -1.64844,8.691407 -2.57813,17.457032 -2.78907,26.300782 0,8.777344 1.24219,17.507812 2.5586,26.167968 1.98828,13.109376 6.38672,25.398438 11.57422,37.562498 5.24609,12.59375 11.52734,24.64844 18.84375,36.16016 7.96484,12.42578 17.03511,24.07422 26.09371,35.69922 8.2149,10.52343 16.6875,20.86718 24.8711,31.42968 l -5.7461,-7.40625 c 13.8789,17.96875 26.8946,36.73047 35.7735,57.71875 l -3.7031,-8.79687 c 4.3164,10.39062 7.2226,21.16406 8.7226,32.3125 l -1.3164,-9.79688 c 1.3086,10.02344 1.3359,20.05079 0.086,30.08204 l 1.3164,-9.78516 c -1.0664,8.04687 -3.1328,15.83203 -6.1992,23.34766 l 3.7149,-8.79688 c -2.586,6.10938 -5.8985,11.79297 -9.9336,17.05469 l 5.7578,-7.45703 c -3.5547,4.47656 -7.5859,8.46875 -12.1016,11.97265 l 7.4492,-5.76562 c -4.6835,3.53515 -9.7304,6.4414 -15.1406,8.72265 l 8.7969,-3.71484 c -5.6094,2.26563 -11.4102,3.82422 -17.4023,4.67188 l 9.8164,-1.30469 c -7.8047,0.98437 -15.6055,0.94922 -23.3985,-0.11719 l 9.793,1.31641 c -10.2461,-1.51563 -20.125,-4.32032 -29.6367,-8.41797 l 8.7929,3.71484 c -11.11324,-4.82031 -21.47653,-10.91797 -31.08981,-18.29687 l 7.46094,5.7539 c -12.625,-9.8164 -23.25391,-21.72656 -33.03906,-34.33984 l 5.75781,7.44922 C 944.92187,283.83984 932.83203,264.30078 919.78516,245.41406 911.62109,233.60156 903.02344,222.03516 893.83984,211 c -6.58593,-7.91406 -13.55078,-15.64453 -21.63281,-22.09375 -9.41797,-7.50391 -18.9375,-14.32031 -29.93359,-19.20313 -6.73047,-3.16015 -13.65625,-5.82812 -20.76953,-7.99609 -7.01563,-1.78906 -14.12891,-3.00391 -21.33594,-3.65234 -4.17188,-0.4961 -8.34766,-0.56641 -12.53125,-0.19922 -6.8086,0.66406 -14.07031,1.32812 -20.58203,3.70312 -6.20703,2.25391 -12.625,4.73438 -18.01172,8.60938 -8.10547,5.625 -14.98047,12.48047 -20.63281,20.5664 -4.79688,6.54688 -8.01563,14.46875 -10.375,22.16797 -2.46094,8.03907 -3.32422,16.69922 -4.125,25.01172 -1.03907,12.02344 -1.3086,24.0625 -0.8086,36.1211 1.07813,27.36718 4.55078,54.42968 10.41406,81.18359 10.32422,48.48047 27.6211,95.13281 45.34766,141.30078 8.90234,23.14844 17.96094,46.29688 26.46484,69.60938 8.76172,24.05468 17.25391,48.40234 22.55469,73.45312 1.40625,6.4375 2.52735,12.92188 3.36719,19.45313 l -1.3125,-9.79688 c 2.17969,15.64453 2.34766,31.30469 0.49219,46.98828 l 1.3164,-9.78125 c -1.64843,12.22266 -4.83593,24.03125 -9.5625,35.42578 l 3.71094,-8.79687 c -4.01562,9.52734 -9.16016,18.39844 -15.43359,26.61719 l 5.7539,-7.44922 c -5.14843,6.60937 -11.02734,12.48828 -17.63281,17.64453 l 7.46094,-5.75391 c -6.00781,4.5625 -12.47656,8.32422 -19.41406,11.28906 l 8.79687,-3.71484 c -7.10937,2.93359 -14.47266,4.91797 -22.09375,5.95703 l 9.79297,-1.3164 c -8.21094,1.00781 -16.42188,0.98828 -24.62891,-0.0625 l 9.78516,1.3164 c -10.41406,-1.46094 -20.46875,-4.23437 -30.15625,-8.32422 l 8.79687,3.71485 c -11.63671,-5 -22.46875,-11.3711 -32.49218,-19.11719 l 7.44922,5.75391 c -11.01172,-8.55079 -20.78125,-18.34375 -29.3125,-29.375 l 5.75781,7.44921 C 679.625,706.0625 672.48828,693.53516 666.91016,680.12109 l 3.71484,8.79297 c -13.67578,-32.37109 -19.75781,-67.125 -24.41797,-101.76172 l 1.3125,9.78516 C 640.64062,545.45703 636.83984,492.77344 617.68359,443.98828 612.54687,430.92969 606.97266,417.96875 600.04687,405.75391 593.12891,393.8125 585.19531,382.58984 576.25,372.08203 c -18.38281,-21.97656 -42.55078,-38.41406 -69.27344,-48.44922 -7.73828,-2.7539 -15.68359,-4.60156 -23.84375,-5.53515 -4.62109,-0.73829 -9.27344,-1.1875 -13.94922,-1.34766 -6.3125,-0.0742 -12.6289,0.90625 -18.8125,1.83203 -6.33593,0.98047 -12.49218,2.62891 -18.46484,4.95313 -5.97656,2.32421 -11.62891,5.26171 -16.96094,8.82031 -12.9414,8.69922 -22.37109,18.63281 -31.4375,31.21484 -7.36719,10.19531 -12.33203,21.9375 -16.83594,33.60547 -8.3125,21.6875 -11.67968,45.65234 -12.7539,68.80078 -1.25,26.97656 0.53906,54.34375 3.67187,81.13281 3.42578,30.79297 9.00782,61.1875 16.75391,91.1875 7.95312,30.10157 18.58984,59.1836 30.77344,87.8125 2.76172,6.52344 5.65234,12.98829 8.66797,19.39063 3.70703,7.92187 13.89062,14.73047 22.01171,16.92969 8.8086,2.41797 20.55079,1.32422 28.41016,-3.71485 7.85938,-5.03906 14.79297,-12.625 16.92578,-22.01172 l 1.31641,-9.78515 c 0.008,-3.26563 -0.41797,-6.47656 -1.26953,-9.62891 -0.85547,-3.15625 -2.10547,-6.14062 -3.75782,-8.96094 z m 0,0"
         fill-opacity="1"
         fill-rule="nonzero"
         id="path12" />
      <g
         transform="translate(625,104)"
         id="g29">
        <g
           clip-path="url(#7a0bb22a96)"
           id="g28">
          <g
             fill="#211d18"
             fill-opacity="1"
             id="g15">
            <g
               transform="translate(2.254724,465.54944)"
               id="g14">
              <g
                 id="g13">
                <path
                   d="M 218.57812,-220.92187 H 146.5 V 0 H 85.78125 V -220.92187 H 13.703125 v -53.28125 H 218.57812 Z m 0,0"
                   id="path13" />
              </g>
            </g>
          </g>
          <g
             fill="#211d18"
             fill-opacity="1"
             id="g18">
            <g
               transform="translate(203.60113,465.54944)"
               id="g17">
              <g
                 id="g16">
                <path
                   d="m 27.421875,-207.21875 h 60.71875 V 0 h -60.71875 z m 30.15625,-34.46875 c -9.398437,0 -17.230469,-3.19531 -23.5,-9.59375 -6.273437,-6.40625 -9.40625,-14.17578 -9.40625,-23.3125 0,-9.40625 3.132813,-17.30469 9.40625,-23.70312 6.269531,-6.39454 14.101563,-9.59375 23.5,-9.59375 9.40625,0 17.304687,3.19921 23.703125,9.59375 6.394531,6.39843 9.59375,14.29687 9.59375,23.70312 0,9.13672 -3.199219,16.90625 -9.59375,23.3125 -6.398438,6.39844 -14.296875,9.59375 -23.703125,9.59375 z m 0,0"
                   id="path15" />
              </g>
            </g>
          </g>
          <g
             fill="#211d18"
             fill-opacity="1"
             id="g21">
            <g
               transform="translate(290.95568,465.54944)"
               id="g20">
              <g
                 id="g19">
                <path
                   d="m 20.375,-207.21875 h 61.109375 v 30.15625 h 3.125 c 4.4375,-9.65625 11.679687,-17.8125 21.734375,-24.46875 10.0625,-6.66406 22.27344,-10 36.64062,-10 27.15625,0 45.95313,8.55469 56.39063,25.65625 10.44531,17.10547 15.67187,36.23438 15.67187,57.39063 V 0 h -61.09375 v -117.90625 c 0,-13.58203 -3.00781,-24.28906 -9.01562,-32.125 -6.01172,-7.83203 -14.89063,-11.75 -26.64062,-11.75 -12.53125,0 -21.804692,4.11719 -27.812505,12.34375 -6,8.21875 -9,18.73047 -9,31.53125 V 0 H 20.375 Z m 0,0"
                   id="path18" />
              </g>
            </g>
          </g>
          <g
             fill="#211d18"
             fill-opacity="1"
             id="g24">
            <g
               transform="translate(497.00274,465.54944)"
               id="g23">
              <g
                 id="g22">
                <path
                   d="m 23.109375,-290.65625 h 61.5 v 161.39063 H 86.5625 l 57.59375,-77.95313 h 67.375 L 142.1875,-111.64063 213.09375,0 H 145.32812 L 86.96875,-99.109375 H 84.609375 V 0 h -61.5 z m 0,0"
                   id="path21" />
              </g>
            </g>
          </g>
          <g
             fill="#211d18"
             fill-opacity="1"
             id="g27">
            <g
               transform="translate(691.29808,465.54944)"
               id="g26">
              <g
                 id="g25">
                <path
                   d="m 65.8125,3.53125 c -9.667969,0 -17.636719,-3.269531 -23.90625,-9.796875 -6.261719,-6.53125 -9.390625,-14.492187 -9.390625,-23.890625 0,-9.40625 3.128906,-17.304688 9.390625,-23.703125 6.269531,-6.394531 14.238281,-9.59375 23.90625,-9.59375 9.65625,0 17.679688,3.199219 24.078125,9.59375 C 96.296875,-47.460938 99.5,-39.5625 99.5,-30.15625 c 0,9.398438 -3.265625,17.359375 -9.796875,23.890625 C 83.171875,0.261719 75.207031,3.53125 65.8125,3.53125 Z m 0,0"
                   id="path24" />
              </g>
            </g>
          </g>
        </g>
      </g>
      <g
         fill="#211d18"
         fill-opacity="1"
         id="g32">
        <g
           transform="translate(57.40791,566.48933)"
           id="g31">
          <g
             id="g30">
            <path
               d="m 206.4375,-291.67187 c -10.94922,0 -19.75781,2 -26.42188,6 -6.65625,3.99218 -11.91406,9.68359 -15.76562,17.07812 -3.84375,7.39844 -7.54297,17.60938 -11.09375,30.64063 L 103,-62.15625 c -0.59375,1.78125 -1.92969,6.078125 -4,12.890625 -2.074219,6.804687 -3.109375,13.015625 -3.109375,18.640625 0,8.574219 2.957031,14.492188 8.875005,17.75 5.92578,3.261719 13.92187,4.890625 23.98437,4.890625 L 126.53125,0 H 5.765625 v -7.984375 c 12.132813,-0.300781 21.382813,-2.519531 27.75,-6.65625 6.363281,-4.144531 11.097656,-9.84375 14.203125,-17.09375 3.113281,-7.257813 7.035156,-19.320313 11.765625,-36.1875 L 108.32813,-237.95312 c 4.72656,-16.875 7.09375,-27.38282 7.09375,-31.53125 0,-9.16407 -3.32813,-15.15625 -9.98438,-17.96875 -6.65625,-2.8125 -15.460938,-4.21875 -26.40625,-4.21875 l 2.21875,-8 h 127.40625 z m 0,0"
               id="path29" />
          </g>
        </g>
      </g>
      <g
         fill="#211d18"
         fill-opacity="1"
         id="g35">
        <g
           transform="translate(197.25092,566.48933)"
           id="g34">
          <g
             id="g33">
            <path
               d="m 69.703125,-99.890625 c 18.644531,-30.781245 37.437505,-55.640625 56.375005,-74.578125 18.94531,-18.94531 36.55468,-28.42187 52.82812,-28.42187 6.8125,0 12.50781,2.29687 17.09375,6.89062 4.59375,4.58594 6.89062,11.16797 6.89062,19.75 0,7.99219 -2.07421,19.53125 -6.21875,34.625 l -27.96875,95.890625 c -2.66796,9.480469 -4,15.996094 -4,19.546875 0,2.65625 0.66407,4.578125 2,5.765625 1.33204,1.1875 2.73829,1.78125 4.21875,1.78125 3.55079,0 9.02344,-3.847656 16.42188,-11.546875 7.40625,-7.695312 12.4375,-13.765625 15.09375,-18.203125 l 6.67187,5.328125 c -9.17968,12.730469 -19.46484,23.980469 -30.85937,33.75 -11.39844,9.757812 -22.125,14.640625 -32.1875,14.640625 -4.74219,0 -8.74219,-1.851563 -12,-5.546875 -3.25,-3.695312 -4.875,-8.65625 -4.875,-14.875 0,-6.507812 1.62891,-15.238281 4.89062,-26.1875 l 30.1875,-106.10937 c 0.28907,-0.88282 1.03125,-3.32813 2.21875,-7.32813 1.1875,-4 1.78125,-7.92187 1.78125,-11.76562 0,-3.84375 -1.03906,-6.80079 -3.10937,-8.875 -2.07422,-2.07032 -4.29688,-3.10938 -6.67188,-3.10938 -6.80468,0 -16.64062,5.77344 -29.51562,17.3125 -12.875,11.54297 -25.38281,26.04688 -37.515625,43.51562 C 81.097656,-103.14063 72.738281,-89.75 66.375,-77.46875 60.007812,-65.1875 54.3125,-50.316406 49.28125,-32.859375 45.425781,-20.128906 42.316406,-9.175781 39.953125,0 h -34.1875 l 42.1875,-147.84375 c 0.289063,-0.88281 1.320313,-4.65625 3.09375,-11.3125 1.78125,-6.65625 2.671875,-11.46094 2.671875,-14.42187 0,-3.55079 -1.261719,-6.28907 -3.78125,-8.21875 -2.511719,-1.92579 -5.839844,-2.89063 -9.984375,-2.89063 -4.148437,0 -10.0625,0.29688 -17.75,0.89063 v -7.98438 L 90.125,-202.89062 h 7.984375 L 68.8125,-100.78125 Z m 0,0"
               id="path32" />
          </g>
        </g>
      </g>
      <g
         fill="#211d18"
         fill-opacity="1"
         id="g38">
        <g
           transform="translate(388.14788,566.48933)"
           id="g37">
          <g
             id="g36">
            <path
               d="m 130.96875,-318.3125 -63.046875,219.75 0.890625,0.890625 71.03125,-55.046875 c 1.47656,-1.1875 4.95312,-3.92578 10.42187,-8.21875 5.47657,-4.28906 9.92188,-8.28516 13.32813,-11.98437 3.40625,-3.69532 5.10937,-6.87891 5.10937,-9.54688 0,-5.03125 -5.92187,-7.54687 -17.76562,-7.54687 L 153.15625,-198 h 87.90625 l -2.21875,7.98438 c -15.09375,0.30468 -30.63281,4.96875 -46.60938,14 -15.98046,9.02343 -38.91796,25.21875 -68.81249,48.59374 l 27.96874,76.812505 c 4.14454,11.542969 7.69532,19.902344 10.65625,25.078125 2.95704,5.179688 6.65625,7.765625 11.09375,7.765625 4.73829,0 10.73438,-2.957031 17.98438,-8.875 7.25,-5.914063 14.86719,-13.90625 22.85937,-23.96875 l 6.65625,4.4375 c -28.40625,34.335937 -50.60546,51.5 -66.59375,51.5 -5.03125,0 -9.76562,-1.996094 -14.20312,-5.984375 -4.4375,-4 -8.875,-12.066406 -13.3125,-24.203125 L 96.34375,-107 63.046875,-81.25 39.953125,0 H 6.21875 l 78.578125,-274.35937 c 2.070313,-6.8125 3.109375,-11.84375 3.109375,-15.09375 0,-3.85157 -1.335938,-6.89063 -4,-9.10938 -2.667969,-2.21875 -6.367188,-3.32812 -11.09375,-3.32812 -3.855469,0 -7.335938,0.29687 -10.4375,0.89062 -3.105469,0.59375 -5.25,1.03906 -6.4375,1.32813 v -8.4375 l 67.03125,-10.20313 z m 0,0"
               id="path35" />
          </g>
        </g>
      </g>
    </g>
  </g>
</svg>
